# xmcd CD database file
#
# Track frame offsets:
#	150
#	28917
#	41479
#	68105
#	98763
#	120497
#	158546
#
# Disc length: 2441 seconds
#
# Revision: 0
# Processed by: cddbd v1.5.1PL2 Copyright (c) Steve Scherf et al.
# Submitted via: CDex 1.50Beta7
#
DISCID=4f098707
DTITLE=Kiki Band - Dowser
DYEAR=2005
DGENRE=Jazz
TTITLE0=Squirrelly Dragon
TTITLE1=Monkey Mash
TTITLE2=Dressler＃36
TTITLE3=発端は破綻
TTITLE4=ビバ中央線ジャズ
TTITLE5=Dowser
TTITLE6=ンゴメコンベ
EXTD=YEAR: 2005
EXTT0=
EXTT1=
EXTT2=
EXTT3=
EXTT4=
EXTT5=
EXTT6=
PLAYORDER=
